<svg height="512" viewBox="0 0 512 512" width="512" xmlns="http://www.w3.org/2000/svg"><g id="BULINE"><circle cx="256" cy="256" fill="#7cc8fb" r="256"/></g><g id="Icons"><circle cx="256" cy="256" fill="#db1b1b" r="256"/><path d="m286.5 510.2a258.06 258.06 0 0 1 -30.5 1.8c-141.38 0-256-114.62-256-256s114.62-256 256-256a258.06 258.06 0 0 1 30.5 1.8c-127 15.08-225.5 123.13-225.5 254.2s98.5 239.12 225.5 254.2z" fill="#c61a1a"/><path d="m391.05 307.17c-8-11.67-15.66 0-15.66 0h-17.67l8.67-7.33a8.87 8.87 0 0 0 10.66-1.34c5-5.66 9.34-6.33 9.34-6.33-1.67-3.33-10.67-1.33-10.67-1.33-10.33-.34-10.67 5.33-10.67 5.33-7 6-16.66 8.33-16.66 8.33-5.34-2-28.34-7.33-28.34-7.33 13-8.67 4.34-10 4.34-10-11.67 0-26-11.33-26-11.33l-7-12.34c-3-8.71-.54-8.75 1.63-7.64a6.58 6.58 0 0 1 3 3.36c2.18 5.24 7.12 10.36 9.84 12.92a7.79 7.79 0 0 0 4.8 2.1c8.06.58 1.75-5.74 1.75-5.74a14.67 14.67 0 0 1 -6.12-10.77c-.4-4.49 5.75-6.24 7.85-2.25a54 54 0 0 1 3.53 9 19.18 19.18 0 0 0 3.08 6.06c9.4 12.42 17.66 7.58 17.66 7.58 5.61-4.1-.39-7.93-5.31-10.11a16.75 16.75 0 0 1 -8-7.3l-1.4-2.59c-2.5-7.71-.18-9.3 1.91-9.4a4.65 4.65 0 0 1 3.42 1.36l17.34 16.71c13 20 29 17 29 17 6.35-.52 9.12-2.8 10.14-5.4 1.69-4.3-1.75-8.92-6.38-8.93h-8.43a22.22 22.22 0 0 1 -9.82-2.34 25.92 25.92 0 0 1 -8.64-6.51l-13.54-15.48c-5-9.67 2.33-5.67 2.33-5.67l10 9c7.59 8 18.11 10.16 24.82 10.65a11.67 11.67 0 0 0 11.25-6c2.82-5.34-1.79-6.36-5.12-6.45a15.71 15.71 0 0 0 -3.93.4 31.46 31.46 0 0 1 -8 .39 26.47 26.47 0 0 1 -10.79-3l-2.58-1.35c-7-3.67-15.67-14.67-15.67-14.67-4.33-9 4.67-6.33 4.67-6.33l17.33 10.33c17 10.34 23.34 0 23.34 0 .85-8.35-5.87-9.27-10.77-8.86a27.46 27.46 0 0 1 -11.21-1.31h-.1a26.12 26.12 0 0 1 -6.12-3l-13.64-9.17a3 3 0 0 1 2.9-5.15l10.6 4.92a27.32 27.32 0 0 0 23.33 2.2 8.46 8.46 0 0 0 5.69-8.67c-.49-4.82-5.22-4.07-8.68-2.83a27.42 27.42 0 0 1 -9.14 1.63h-5.6a26.34 26.34 0 0 1 -10.71-2.27l-9.89-4.4c-8.33-8 3-7.66 3-7.66 14.34 7.66 26.34 6 26.34 6 15.66-1.34 16.13-16.34 16.13-16.34-3.16-4.38-8.31-1.9-12.13 1a22.1 22.1 0 0 1 -13.4 4.64h-1.84a22 22 0 0 1 -10.24-2.53l-6.15-3.24a5.64 5.64 0 0 1 -2.89-3.49c-.58-2.22.72-2.89 1.9-3.07a5.22 5.22 0 0 1 2.32.22c24.9 7.51 39.3-6.56 39.3-6.56 5-9.05 2.44-11.87-.61-12.64a6.78 6.78 0 0 0 -6.32 1.9 25.78 25.78 0 0 1 -7.86 4.76 36.18 36.18 0 0 1 -13.3 2.74l-11.5.21a4 4 0 0 1 -3.7-2.16 3.65 3.65 0 0 1 .68-4 4.08 4.08 0 0 1 3.2-1.48c16.95-.15 30.32-9.65 37.24-15.83a15.11 15.11 0 0 0 4.83-14.32c-1.81-8.53-8.46-2.91-11.33 0a16.08 16.08 0 0 0 -2.06 2.65c-9.78 15.3-32.27 18.47-32.27 18.47-1-4.67-6.67-3.67-6.67-3.67l-29.94 14.37a4.24 4.24 0 0 0 -2.26 4.9 22.09 22.09 0 0 1 .7 4.18 13.91 13.91 0 0 1 -7.5 13.26c-6 3.05-10.06-.51-12.41-4.15a14.12 14.12 0 0 1 -1.6-11.74c5.17-17.16 28.68-21.49 28.68-21.49 14.21.33 19.67-6.24 20-6.64-3.89 3.42-10.65 2-10.65 2l-.46-.31a1.11 1.11 0 0 1 .46-2 155.38 155.38 0 0 0 19.47-4.5 5 5 0 0 0 3.73-4.94c-.16-4.24-6.51.75-6.51.75-4.84 5.73-18.13 6-20.6 6h-.4a6.26 6.26 0 0 1 5.61-5.81l5-.49 4.67 2-1.37-2.74a7.1 7.1 0 0 0 -6.35-3.92h-6.28c-10-8.67-23-1.67-23-1.67-4.67 2.33-22 4-22 4l9 6.33-13.33 9 8.33 1.67c-8.33 0-15 8.33-15 8.33h5.7l-11.37 11.66-11.39-11.67h5.7s-6.7-8.33-15-8.33l8.33-1.67-13.33-9 9-6.33s-17.33-1.67-22-4c0 0-13-7-23 1.67h-6.31a7.1 7.1 0 0 0 -6.35 3.92l-1.37 2.74 4.67-2 5 .49a6.26 6.26 0 0 1 5.65 5.85h-.4c-2.47 0-15.76-.27-20.6-6 0 0-6.35-5-6.51-.75a5 5 0 0 0 3.73 4.94 155.38 155.38 0 0 0 19.45 4.48 1.11 1.11 0 0 1 .46 2l-.46.31s-6.76 1.44-10.65-2c.31.4 5.77 7 20 6.64 0 0 23.51 4.33 28.68 21.49a14.12 14.12 0 0 1 -1.6 11.74c-2.35 3.64-6.37 7.2-12.41 4.15a13.91 13.91 0 0 1 -7.5-13.26 22.09 22.09 0 0 1 .7-4.18 4.24 4.24 0 0 0 -2.26-4.9l-29.94-14.37s-5.67-1-6.67 3.67c0 0-22.49-3.17-32.27-18.47a16.08 16.08 0 0 0 -2.06-2.65c-2.87-2.93-9.52-8.55-11.33 0a15.11 15.11 0 0 0 4.82 14.32c6.92 6.18 20.29 15.68 37.24 15.83a4.08 4.08 0 0 1 3.2 1.48 3.65 3.65 0 0 1 .68 4 4 4 0 0 1 -3.7 2.16l-11.5-.21a36.18 36.18 0 0 1 -13.3-2.74 25.78 25.78 0 0 1 -7.86-4.76 6.78 6.78 0 0 0 -6.32-1.9c-3 .77-5.62 3.59-.61 12.64 0 0 14.4 14.07 39.3 6.56a5.22 5.22 0 0 1 2.32-.22c1.18.18 2.48.85 1.9 3.07a5.64 5.64 0 0 1 -2.89 3.49l-6.15 3.24a22 22 0 0 1 -10.24 2.53h-1.85a22.1 22.1 0 0 1 -13.4-4.64c-3.82-2.93-9-5.41-12.13-1 0 0 .47 15 16.13 16.34 0 0 12 1.66 26.34-6 0 0 11.33-.34 3 7.66l-9.89 4.4a26.34 26.34 0 0 1 -10.71 2.27h-5.6a27.42 27.42 0 0 1 -9.14-1.63c-3.46-1.24-8.19-2-8.68 2.83a8.46 8.46 0 0 0 5.69 8.67 27.32 27.32 0 0 0 23.33-2.2l10.6-4.92a3 3 0 0 1 2.9 5.15l-13.64 9.17a26.12 26.12 0 0 1 -6.12 3h-.1a27.46 27.46 0 0 1 -11.21 1.31c-4.9-.41-11.62.51-10.77 8.86 0 0 6.34 10.34 23.34 0l17.33-10.33s9-2.67 4.67 6.33c0 0-8.67 11-15.67 14.67l-2.58 1.35a26.47 26.47 0 0 1 -10.79 3 31.46 31.46 0 0 1 -8-.39 15.71 15.71 0 0 0 -3.93-.4c-3.33.09-7.94 1.11-5.12 6.45a11.67 11.67 0 0 0 11.25 6c6.71-.49 17.23-2.64 24.82-10.65l10-9s7.33-4 2.33 5.67l-13.54 15.48a25.92 25.92 0 0 1 -8.64 6.51 22.22 22.22 0 0 1 -9.82 2.34h-8.43c-4.63 0-8.07 4.63-6.38 8.93 1 2.6 3.79 4.88 10.14 5.4 0 0 16 3 29-17l17.42-16.67a4.65 4.65 0 0 1 3.42-1.36c2.09.1 4.41 1.69 1.91 9.4l-1.4 2.59a16.75 16.75 0 0 1 -8 7.3c-4.92 2.18-10.92 6-5.31 10.11 0 0 8.26 4.84 17.66-7.58a19.18 19.18 0 0 0 3.08-6.06 54 54 0 0 1 3.53-9c2.1-4 8.25-2.24 7.85 2.25a14.67 14.67 0 0 1 -6.12 10.77s-6.31 6.32 1.75 5.74a7.79 7.79 0 0 0 4.8-2.1c2.72-2.56 7.66-7.68 9.84-12.92a6.58 6.58 0 0 1 3-3.36c2.17-1.11 4.61-1.07 1.63 7.64l-7 12.34s-14.33 11.33-26 11.33c0 0-8.66 1.33 4.34 10 0 0-23 5.33-28.34 7.33 0 0-9.66-2.33-16.66-8.33 0 0-.34-5.67-10.67-5.33 0 0-9-2-10.67 1.33 0 0 4.34.67 9.34 6.33a8.87 8.87 0 0 0 10.66 1.34l8.67 7.33h-17.7s-7.66-11.67-15.66 0c0 0-5.67-.33-4.67 5.67 0 0 4.67-4.34 5.33-3 0 0 6 6 14.67.66h17.72l-8.34 5.34s-14-7-17 15.66l5-5.33s6.67 5.67 13.67-6.67l11.67-5.38h5.66l8.34 2.67s3.6 8.66 13.13 5.33c0 0 3.2 1.33 4.2 3.67 0 0 4.67-5-2.67-9 0 0-2.33-9.34-12.66-6l-6.67-1 29-6.67 7.17 4.85a4.57 4.57 0 0 0 6.53-1.51c3.36-5.9 9.92-16.5 17.06-23.25 6.51-6.15 17 .51 14.21 9a38.82 38.82 0 0 1 -6 10.87l-15 13.67-13.33 1s-7.49-2.73-7.49 2.87a6.74 6.74 0 0 0 4.52 6.33c3.81 1.35 10 2.66 14.57-.8a20.7 20.7 0 0 1 3.13-3.59c4.24-3.76 10.14 2.39 6.13 6.4a29.44 29.44 0 0 1 -5.59 4.19l-7 3.33s-12.51-1-9.16 4.53a7.23 7.23 0 0 0 5.27 3.34c3.58.47 9.81.54 13.89-3.53 0 0 10.33-11.67 10.67-5 0 0 0 10-10.67 14.66 0 0-12.16.25-8 6.13a8.77 8.77 0 0 0 9 3.42c4.09-.89 9.69-3.92 13.67-13.21 0 0 3.66-7.34 5.33.33 0 0 2.28 8.82-7.9 16.48a3.54 3.54 0 0 0 -.86 4.76l18.52 28.05 18.48-28.08a3.54 3.54 0 0 0 -.86-4.76c-10.18-7.66-7.9-16.48-7.9-16.48 1.67-7.67 5.33-.33 5.33-.33 4 9.29 9.58 12.32 13.67 13.21a8.77 8.77 0 0 0 9-3.42c4.14-5.88-8-6.13-8-6.13-10.67-4.66-10.67-14.66-10.67-14.66.34-6.67 10.67 5 10.67 5 4.08 4.07 10.31 4 13.89 3.53a7.23 7.23 0 0 0 5.27-3.34c3.35-5.55-9.16-4.53-9.16-4.53l-7-3.33a29.44 29.44 0 0 1 -5.59-4.19c-4-4 1.89-10.16 6.13-6.4a20.7 20.7 0 0 1 3.13 3.59c4.54 3.46 10.76 2.15 14.57.8a6.74 6.74 0 0 0 4.58-6.26c0-5.6-7.49-2.87-7.49-2.87l-13.33-1-15-13.67a38.82 38.82 0 0 1 -6-10.87c-2.77-8.53 7.7-15.19 14.21-9 7.14 6.75 13.7 17.35 17.06 23.25a4.57 4.57 0 0 0 6.53 1.51l7.17-4.85 29 6.67-6.67 1c-10.33-3.34-12.66 6-12.66 6-7.34 4-2.67 9-2.67 9 1-2.34 4.2-3.67 4.2-3.67 9.53 3.33 13.13-5.33 13.13-5.33l8.34-2.67h5.66l11.67 5.33c7 12.34 13.67 6.67 13.67 6.67l5 5.33c-3-22.66-17-15.66-17-15.66l-8.34-5.34h17.67c8.67 5.34 14.67-.66 14.67-.66.66-1.34 5.33 3 5.33 3 1.03-6.04-4.64-5.71-4.64-5.71zm-85.33-186.12c3.52 0 6.38 1.51 6.38 3.37s-2.86 3.37-6.38 3.37-6.38-1.51-6.38-3.37 2.86-3.37 6.38-3.37zm-99.44 6.74c-3.52 0-6.38-1.51-6.38-3.37s2.86-3.37 6.38-3.37 6.38 1.51 6.38 3.37-2.86 3.37-6.38 3.37z" fill="#27273d"/><g fill="#ea3939"><circle cx="460.61" cy="176.69" r="16.28"/><circle cx="449.31" cy="144.71" r="11.53"/></g></g></svg>